<svg xmlns="http://www.w3.org/2000/svg" width="805" height="600"><rect width="805" height="600" x="0" y="0" fill="#FFFFFF" id="background"/><g id="viz"><g transform="translate(0,0)"><g transform="translate(50,20)"><g class="bars"><rect id="undefined - enero" x="0.9986595174262334" y="345.79999999999995" height="214.20000000000005" width="61.001452189454874" fill="#1f77b4"/><rect id="undefined - febrero" x="62.99877122430738" y="428.75" height="131.25" width="61.001452189454874" fill="#1f77b4"/><rect id="undefined - marzo" x="124.99888293118853" y="174.65" height="385.35" width="61.001452189454874" fill="#1f77b4"/><rect id="undefined - abril" x="186.9989946380697" y="478.45" height="81.55000000000001" width="61.001452189454874" fill="#1f77b4"/><rect id="undefined - mayo" x="248.99910634495083" y="515.9" height="44.10000000000002" width="61.001452189454874" fill="#1f77b4"/><rect id="undefined - junio" x="310.999218051832" y="538.3000000000001" height="21.699999999999932" width="61.001452189454874" fill="#1f77b4"/><rect id="undefined - julio" x="372.99932975871315" y="22.750000000000014" height="537.25" width="61.001452189454874" fill="#1f77b4"/><rect id="undefined - agosto" x="434.99944146559426" y="410.19999999999993" height="149.80000000000007" width="61.001452189454874" fill="#1f77b4"/><rect id="undefined - septiembre" x="496.99955317247543" y="499.09999999999997" height="60.900000000000034" width="61.001452189454874" fill="#1f77b4"/><rect id="undefined - octubre" x="558.9996648793565" y="416.85" height="143.14999999999998" width="61.001452189454874" fill="#1f77b4"/><rect id="undefined - noviembre" x="620.9997765862377" y="495.6" height="64.39999999999998" width="61.001452189454874" fill="#1f77b4"/><rect id="undefined - diciembre" x="682.9998882931188" y="485.09999999999997" height="74.90000000000003" width="61.001452189454874" fill="#1f77b4"/></g><g id="xAxis" transform="translate(0,560)" fill="none" font-size="10" font-family="sans-serif" text-anchor="middle"><path class="domain" stroke="currentColor" d="M0,0H745"/><g class="tick" opacity="1" transform="translate(31.49938561215367,0)"><line stroke="currentColor" y2="6"/><text fill="currentColor" y="9" dy="0.71em">enero</text></g><g class="tick" opacity="1" transform="translate(93.49949731903482,0)"><line stroke="currentColor" y2="6"/><text fill="currentColor" y="9" dy="0.71em">febrero</text></g><g class="tick" opacity="1" transform="translate(155.49960902591596,0)"><line stroke="currentColor" y2="6"/><text fill="currentColor" y="9" dy="0.71em">marzo</text></g><g class="tick" opacity="1" transform="translate(217.49972073279713,0)"><line stroke="currentColor" y2="6"/><text fill="currentColor" y="9" dy="0.71em">abril</text></g><g class="tick" opacity="1" transform="translate(279.49983243967824,0)"><line stroke="currentColor" y2="6"/><text fill="currentColor" y="9" dy="0.71em">mayo</text></g><g class="tick" opacity="1" transform="translate(341.4999441465594,0)"><line stroke="currentColor" y2="6"/><text fill="currentColor" y="9" dy="0.71em">junio</text></g><g class="tick" opacity="1" transform="translate(403.5000558534406,0)"><line stroke="currentColor" y2="6"/><text fill="currentColor" y="9" dy="0.71em">julio</text></g><g class="tick" opacity="1" transform="translate(465.5001675603217,0)"><line stroke="currentColor" y2="6"/><text fill="currentColor" y="9" dy="0.71em">agosto</text></g><g class="tick" opacity="1" transform="translate(527.5002792672028,0)"><line stroke="currentColor" y2="6"/><text fill="currentColor" y="9" dy="0.71em">septiembre</text></g><g class="tick" opacity="1" transform="translate(589.5003909740839,0)"><line stroke="currentColor" y2="6"/><text fill="currentColor" y="9" dy="0.71em">octubre</text></g><g class="tick" opacity="1" transform="translate(651.500502680965,0)"><line stroke="currentColor" y2="6"/><text fill="currentColor" y="9" dy="0.71em">noviembre</text></g><g class="tick" opacity="1" transform="translate(713.5006143878462,0)"><line stroke="currentColor" y2="6"/><text fill="currentColor" y="9" dy="0.71em">diciembre</text></g><text x="745" y="-4" text-anchor="end" style="font-family: Arial, sans-serif; font-size: 12px; fill: rgb(123, 123, 123); font-weight: bold;">Mes</text></g><g id="yAxis" fill="none" font-size="10" font-family="sans-serif" text-anchor="end"><path class="domain" stroke="currentColor" d="M-6,560H0V0H-6"/><g class="tick" opacity="1" transform="translate(0,560)"><line stroke="currentColor" x2="-6"/><text fill="currentColor" x="-9" dy="0.32em">0</text></g><g class="tick" opacity="1" transform="translate(0,490)"><line stroke="currentColor" x2="-6"/><text fill="currentColor" x="-9" dy="0.32em">200</text></g><g class="tick" opacity="1" transform="translate(0,420)"><line stroke="currentColor" x2="-6"/><text fill="currentColor" x="-9" dy="0.32em">400</text></g><g class="tick" opacity="1" transform="translate(0,350)"><line stroke="currentColor" x2="-6"/><text fill="currentColor" x="-9" dy="0.32em">600</text></g><g class="tick" opacity="1" transform="translate(0,280)"><line stroke="currentColor" x2="-6"/><text fill="currentColor" x="-9" dy="0.32em">800</text></g><g class="tick" opacity="1" transform="translate(0,210)"><line stroke="currentColor" x2="-6"/><text fill="currentColor" x="-9" dy="0.32em">1,000</text></g><g class="tick" opacity="1" transform="translate(0,140)"><line stroke="currentColor" x2="-6"/><text fill="currentColor" x="-9" dy="0.32em">1,200</text></g><g class="tick" opacity="1" transform="translate(0,70)"><line stroke="currentColor" x2="-6"/><text fill="currentColor" x="-9" dy="0.32em">1,400</text></g><g class="tick" opacity="1" transform="translate(0,0)"><line stroke="currentColor" x2="-6"/><text fill="currentColor" x="-9" dy="0.32em">1,600</text></g><text x="4" text-anchor="start" dominant-baseline="hanging" style="font-family: Arial, sans-serif; font-size: 12px; fill: rgb(123, 123, 123); font-weight: bold;">Duración (segundos) [sum]</text></g></g><text y="4" x="4" style="font-family: Arial, sans-serif; font-size: 12px; fill: black; font-weight: bold; dominant-baseline: hanging;"/></g></g></svg>